<?xml version="1.0" encoding="UTF-8" standalone="no"?>
<!DOCTYPE svg PUBLIC "-//W3C//DTD SVG 1.1//EN" "http://www.w3.org/Graphics/SVG/1.1/DTD/svg11.dtd">
<svg width="100%" height="100%" viewBox="0 0 455 463" version="1.1" xmlns="http://www.w3.org/2000/svg" xmlns:xlink="http://www.w3.org/1999/xlink" xml:space="preserve" xmlns:serif="http://www.serif.com/" style="fill-rule:evenodd;clip-rule:evenodd;stroke-linejoin:round;stroke-miterlimit:2;">
    <g transform="matrix(0.968243,0,0,0.967425,-540.321,-101.527)">
        <rect id="Artboard1" x="558.043" y="104.946" width="468.994" height="478.28" style="fill:none;"/>
        <clipPath id="_clip1">
            <rect id="Artboard11" serif:id="Artboard1" x="558.043" y="104.946" width="468.994" height="478.28"/>
        </clipPath>
        <g clip-path="url(#_clip1)">
            <g transform="matrix(1.0328,0,0,1.03367,-33.7128,-19.6839)">
                <g transform="matrix(1,0,0,1,839.02,328.673)">
                    <path d="M0,-208.103C0,-208.103 -61.636,-90.059 -78.035,-45.084C-94.434,-0.11 -125.476,0 -172.456,-23.192C-222.565,-51.312 -230.123,-93.183 -216.963,-114.209C-210.265,-100.023 -139.518,-47.55 -118.76,-58.418C-92.161,-103.504 -62.392,-200.198 0,-208.103" style="fill:rgb(140,198,63);fill-rule:nonzero;"/>
                </g>
                <g transform="matrix(0.218169,-0.975911,-0.975911,-0.218169,710.158,191.2)">
                    <path d="M-29.541,-23.666C-46.259,-23.666 -59.811,-10.114 -59.811,6.604C-59.81,23.322 -46.259,36.874 -29.541,36.874C-12.823,36.873 0.729,23.322 0.729,6.604C0.729,-10.114 -12.823,-23.666 -29.541,-23.666" style="fill:rgb(140,198,63);fill-rule:nonzero;"/>
                </g>
                <g transform="matrix(1,0,0,1,1027.04,154.127)">
                    <path d="M0,183.163C0,183.163 -131.336,161.155 -179.178,159.506C-227.021,157.857 -236.748,128.378 -229.262,76.522C-218.06,20.165 -180.594,0 -156.525,5.994C-167.936,16.759 -195.893,100.287 -179.126,116.654C-128.015,127.967 -26.856,126.295 0,183.163" style="fill:white;fill-rule:nonzero;"/>
                </g>
                <g transform="matrix(0.995468,-0.0950936,-0.0950936,-0.995468,895.636,262.628)">
                    <path d="M-2.879,-0.137C-19.596,-0.137 -33.149,13.415 -33.148,30.132C-33.148,46.85 -19.596,60.403 -2.878,60.403C13.839,60.403 27.391,46.85 27.391,30.133C27.391,13.416 13.839,-0.137 -2.879,-0.137" style="fill:white;fill-rule:nonzero;"/>
                </g>
                <g transform="matrix(1,0,0,1,879.276,325.38)">
                    <path d="M0,257.846C0,257.846 -19.789,126.158 -33.052,80.16C-46.315,34.163 -21.303,15.777 30.318,6.82C87.372,0 118.158,29.369 119.921,54.111C106.148,46.599 18.069,45.912 7.706,66.927C12.794,119.027 45.741,214.684 0,257.846" style="fill:white;fill-rule:nonzero;"/>
                </g>
                <g transform="matrix(0.398995,0.916953,0.916953,-0.398995,913.86,399.858)">
                    <path d="M27.756,-18.193C11.039,-18.193 -2.514,-4.64 -2.514,12.077C-2.514,28.795 11.038,42.347 27.756,42.347C44.474,42.348 58.026,28.795 58.026,12.078C58.027,-4.64 44.474,-18.193 27.756,-18.193" style="fill:white;fill-rule:nonzero;"/>
                </g>
                <g transform="matrix(1,0,0,1,599.65,456.466)">
                    <path d="M0,62.516C0,62.516 119.067,2.879 158.687,-23.989C198.307,-50.857 223.54,-32.777 248.059,13.525C272.229,65.654 253.85,104.028 230.873,113.373C233.746,97.951 207.095,13.997 183.903,10.659C135.947,31.647 55.215,92.624 0,62.516" style="fill:white;fill-rule:nonzero;"/>
                </g>
                <g transform="matrix(-0.748096,0.66359,0.66359,0.748096,802.01,526.084)">
                    <path d="M20.087,-52.914C3.37,-52.915 -10.182,-39.362 -10.183,-22.644C-10.183,-5.927 3.37,7.626 20.087,7.626C36.805,7.625 50.357,-5.927 50.358,-22.644C50.357,-39.362 36.805,-52.914 20.087,-52.914" style="fill:white;fill-rule:nonzero;"/>
                </g>
                <g transform="matrix(1,0,0,1,574.049,493.007)">
                    <path d="M0,-259.792C0,-259.792 93.608,-165.077 131.435,-135.738C169.261,-106.398 159.894,-76.803 123.474,-39.139C81.405,0 39.224,-5.578 23.216,-24.526C38.77,-26.576 110.327,-77.939 106.31,-101.023C71.49,-140.111 -11.509,-197.963 0,-259.792" style="fill:white;fill-rule:nonzero;"/>
                </g>
                <g transform="matrix(-0.862806,-0.505536,-0.505536,0.862806,597.736,412.914)">
                    <path d="M-15.302,-56.388C-32.02,-56.388 -45.573,-42.835 -45.572,-26.117C-45.572,-9.4 -32.02,4.153 -15.302,4.152C1.415,4.152 14.968,-9.4 14.968,-26.118C14.968,-42.836 1.415,-56.388 -15.302,-56.388" style="fill:white;fill-rule:nonzero;"/>
                </g>
            </g>
        </g>
    </g>
</svg>
