<?xml version="1.0" encoding="UTF-8" standalone="no"?>
<!DOCTYPE svg PUBLIC "-//W3C//DTD SVG 1.1//EN" "http://www.w3.org/Graphics/SVG/1.1/DTD/svg11.dtd">
<svg width="100%" height="100%" viewBox="0 0 1516 190" version="1.1" xmlns="http://www.w3.org/2000/svg" xmlns:xlink="http://www.w3.org/1999/xlink" xml:space="preserve" xmlns:serif="http://www.serif.com/" style="fill-rule:evenodd;clip-rule:evenodd;stroke-linecap:round;stroke-linejoin:round;stroke-miterlimit:1.5;">
    <g transform="matrix(0.994664,0,0,1.06797,0,-252.88)">
        <rect id="Artboard2" x="0" y="236.785" width="1523.83" height="177.907" style="fill:none;"/>
        <clipPath id="_clip1">
            <rect id="Artboard21" serif:id="Artboard2" x="0" y="236.785" width="1523.83" height="177.907"/>
        </clipPath>
        <g clip-path="url(#_clip1)">
            <g transform="matrix(0.972356,0,0,0.819426,-71.4225,227.215)">
                <rect id="Artboard1" x="73.453" y="11.679" width="1510.8" height="217.112" style="fill:none;"/>
                <g>
                    <clipPath id="_clip2">
                        <rect x="73.453" y="11.679" width="1510.8" height="217.112"/>
                    </clipPath>
                    <g clip-path="url(#_clip2)">
                        <g id="Layer-1" serif:id="Layer 1" transform="matrix(1.03395,0,0,1.14269,1.70928,-20.2906)">
                            <g transform="matrix(1,0,0,1,417.557,183.687)">
                                <path d="M0,-117.726L31.551,-117.726L5.495,0L-39.868,0L-55.88,-73.776L-57.136,-73.776L-74.244,0L-119.137,0L-144.566,-117.726L-112.702,-117.726L-95.75,-26.999L-94.65,-26.999L-72.518,-117.726L-39.868,-117.726L-18.835,-26.999L-17.737,-26.999L0,-117.726Z" style="fill:rgb(140,198,63);fill-rule:nonzero;"/>
                            </g>
                            <g transform="matrix(-1,0,0,1,946.213,3.648)">
                                <rect x="457.41" y="62.313" width="31.393" height="117.726" style="fill:rgb(140,198,63);"/>
                            </g>
                            <g transform="matrix(1,0,0,1,539.497,65.9606)">
                                <path d="M0,117.726L-31.393,117.726L-31.393,0L21.661,0L55.409,90.413L56.665,90.413L54.782,0L86.175,0L86.175,117.726L32.65,117.726L-0.628,27.313L-1.883,27.313L0,117.726Z" style="fill:rgb(140,198,63);fill-rule:nonzero;"/>
                            </g>
                            <g transform="matrix(1,0,0,1,725.17,63.2551)">
                                <path d="M0,117.726L-31.393,117.726L-31.393,27.313L-61.531,27.313L-61.531,0L31.707,0L31.707,27.313L0,27.313L0,117.726Z" style="fill:white;fill-rule:nonzero;"/>
                            </g>
                            <g transform="matrix(1,0,0,1,838.647,108.933)">
                                <path d="M0,26.371L0,-0.156C0,-17.581 -5.808,-19.306 -22.133,-19.306C-38.459,-19.306 -43.794,-17.581 -44.266,-0.156L-44.266,26.371C-43.794,43.949 -38.459,45.677 -22.133,45.677C-5.808,45.677 0,43.949 0,26.371M-76.601,29.823L-76.601,-3.453C-76.601,-39.712 -53.998,-46.619 -22.133,-46.619C9.732,-46.619 32.335,-39.712 32.335,-3.453L32.335,29.823C32.335,66.083 9.732,72.99 -22.133,72.99C-53.998,72.99 -76.601,66.083 -76.601,29.823" style="fill:white;fill-rule:nonzero;"/>
                            </g>
                            <g transform="matrix(1,0,0,1,957.302,144.408)">
                                <path d="M0,-44.58C-0.628,-56.509 -10.832,-56.351 -20.25,-56.351C-42.853,-56.351 -43.48,-49.446 -43.794,-30.451L-43.794,-11.304C-43.794,9.574 -36.576,11.771 -20.25,11.771C-4.238,11.771 0,8.16 0,-8.163L-21.664,-8.163L-21.664,-29.982L31.863,-29.982L31.863,-9.418C31.863,30.293 21.817,37.515 -20.25,37.515C-57.295,37.515 -76.129,31.235 -76.129,-6.907L-76.129,-37.359C-76.129,-76.287 -54.782,-82.095 -20.25,-82.095C10.202,-82.095 31.863,-81.939 31.863,-44.58L0,-44.58Z" style="fill:white;fill-rule:nonzero;"/>
                            </g>
                            <g transform="matrix(1,0,0,1,1158.79,63.2551)">
                                <path d="M0,117.726L-31.393,117.726L-31.393,27.313L-61.531,27.313L-61.531,0L31.707,0L31.707,27.313L0,27.313L0,117.726Z" style="fill:white;fill-rule:nonzero;"/>
                            </g>
                            <g transform="matrix(1,0,0,1,1304.29,63.2551)">
                                <path d="M0,117.726L-31.393,117.726L-31.393,71.577L-72.363,71.577L-72.363,117.726L-103.756,117.726L-103.756,0L-72.363,0L-72.363,44.264L-31.393,44.264L-31.393,0L0,0L0,117.726Z" style="fill:white;fill-rule:nonzero;"/>
                            </g>
                            <g transform="matrix(1,0,0,1,1355.61,133.735)">
                                <path d="M0,-23.233L50.229,-23.233L50.229,-1.414L0,-1.414L0,21.503L54.626,21.503L54.626,47.247L-31.393,47.247L-31.393,-70.48L53.526,-70.48L53.526,-44.736L0,-44.736L0,-23.233Z" style="fill:white;fill-rule:nonzero;"/>
                            </g>
                            <g transform="matrix(1,0,0,1,1033.69,133.735)">
                                <path d="M0,-23.233L50.229,-23.233L50.229,-1.414L0,-1.414L0,21.503L54.626,21.503L54.626,47.247L-31.393,47.247L-31.393,-70.48L53.526,-70.48L53.526,-44.736L0,-44.736L0,-23.233Z" style="fill:white;fill-rule:nonzero;"/>
                            </g>
                            <g transform="matrix(1,0,0,1,1485.25,121.805)">
                                <path d="M0,0.626C13.501,0.626 13.029,-4.396 13.029,-17.738C13.029,-28.254 10.36,-31.237 0,-31.237L-24.328,-31.237L-24.328,0.626L0,0.626ZM-55.723,-58.55L4.866,-58.55C32.023,-58.078 45.364,-52.27 45.364,-22.918C45.364,-3.296 45.364,8.161 23.075,13.341L23.075,14.596C35.948,15.068 44.266,22.131 44.266,35.474L44.266,59.176L12.873,59.176L12.873,42.695C13.187,33.905 9.418,27.939 0,27.939L-24.328,27.939L-24.328,59.176L-55.723,59.176L-55.723,-58.55Z" style="fill:white;fill-rule:nonzero;"/>
                            </g>
                            <g transform="matrix(1,0,0,1,178.676,113.46)">
                                <path d="M0,-85.482C0,-85.482 -25.318,-36.993 -32.054,-18.519C-38.79,-0.045 -51.541,0 -70.84,-9.526C-91.423,-21.077 -94.527,-38.277 -89.122,-46.913C-86.37,-41.086 -57.31,-19.532 -48.783,-23.996C-37.857,-42.516 -25.629,-82.235 0,-85.482" style="fill:rgb(140,198,63);fill-rule:nonzero;"/>
                            </g>
                            <g transform="matrix(0.218152,-0.975915,-0.975915,-0.218152,125.743,56.9906)">
                                <path d="M-12.134,-9.721C-19.002,-9.722 -24.569,-4.154 -24.568,2.713C-24.569,9.58 -19.001,15.147 -12.134,15.146C-5.267,15.147 0.3,9.579 0.299,2.713C0.3,-4.155 -5.267,-9.721 -12.134,-9.721" style="fill:rgb(140,198,63);fill-rule:nonzero;"/>
                            </g>
                            <g transform="matrix(1,0,0,1,255.908,41.7615)">
                                <path d="M0,75.238C0,75.238 -53.949,66.198 -73.601,65.52C-93.253,64.843 -97.249,52.734 -94.174,31.433C-89.572,8.284 -74.183,0 -64.295,2.462C-68.983,6.885 -80.467,41.195 -73.579,47.918C-52.584,52.565 -11.032,51.878 0,75.238" style="fill:white;fill-rule:nonzero;"/>
                            </g>
                            <g transform="matrix(0.995467,-0.0951032,-0.0951032,-0.995467,201.932,86.3307)">
                                <path d="M-1.182,-0.056C-8.05,-0.056 -13.616,5.51 -13.616,12.378C-13.616,19.245 -8.05,24.811 -1.182,24.811C5.685,24.811 11.251,19.245 11.251,12.378C11.251,5.51 5.685,-0.056 -1.182,-0.056" style="fill:white;fill-rule:nonzero;"/>
                            </g>
                            <g transform="matrix(1,0,0,1,195.212,112.107)">
                                <path d="M0,105.915C0,105.915 -8.129,51.822 -13.577,32.927C-19.025,14.033 -8.751,6.481 12.454,2.801C35.89,0 48.535,12.064 49.26,22.227C43.602,19.141 7.422,18.859 3.165,27.491C5.255,48.892 18.789,88.185 0,105.915" style="fill:white;fill-rule:nonzero;"/>
                            </g>
                            <g transform="matrix(0.398985,0.916958,0.916958,-0.398985,209.418,142.701)">
                                <path d="M11.402,-7.473C4.534,-7.473 -1.033,-1.907 -1.033,4.961C-1.032,11.828 4.534,17.395 11.402,17.395C18.268,17.396 23.835,11.828 23.835,4.961C23.835,-1.906 18.269,-7.473 11.402,-7.473" style="fill:white;fill-rule:nonzero;"/>
                            </g>
                            <g transform="matrix(1,0,0,1,80.3508,165.954)">
                                <path d="M0,25.679C0,25.679 48.909,1.182 65.184,-9.854C81.458,-20.891 91.823,-13.464 101.895,5.555C111.823,26.968 104.274,42.731 94.835,46.57C96.015,40.235 85.068,5.749 75.542,4.378C55.843,12.999 22.681,38.047 0,25.679" style="fill:white;fill-rule:nonzero;"/>
                            </g>
                            <g transform="matrix(-0.748106,0.66358,0.66358,0.748106,163.474,194.551)">
                                <path d="M8.251,-21.736C1.384,-21.736 -4.183,-16.17 -4.183,-9.302C-4.183,-2.435 1.384,3.132 8.251,3.132C15.118,3.132 20.685,-2.435 20.685,-9.302C20.685,-16.169 15.118,-21.736 8.251,-21.736" style="fill:white;fill-rule:nonzero;"/>
                            </g>
                            <g transform="matrix(1,0,0,1,69.8345,180.963)">
                                <path d="M0,-106.714C0,-106.714 38.451,-67.808 53.989,-55.756C69.527,-43.705 65.679,-31.548 50.719,-16.077C33.438,0 16.112,-2.291 9.537,-10.074C15.925,-10.916 45.319,-32.014 43.669,-41.497C29.366,-57.553 -4.728,-81.317 0,-106.714" style="fill:white;fill-rule:nonzero;"/>
                            </g>
                            <g transform="matrix(-0.862797,-0.50555,-0.50555,0.862797,79.5639,148.063)">
                                <path d="M-6.286,-23.162C-13.153,-23.162 -18.72,-17.595 -18.72,-10.728C-18.721,-3.861 -13.153,1.706 -6.286,1.706C0.581,1.707 6.148,-3.861 6.148,-10.728C6.148,-17.595 0.581,-23.162 -6.286,-23.162" style="fill:white;fill-rule:nonzero;"/>
                            </g>
                        </g>
                    </g>
                </g>
                <g transform="matrix(0.367303,0,0,0.39662,1077.52,-144.041)">
                    <g transform="matrix(1.02821,0,0,1.04627,26.3936,-5.52347)">
                        <g transform="matrix(69.624,0,0,69.624,1428.95,557.269)">
                        </g>
                        <text x="1378.67px" y="557.269px" style="font-family:'Arial-BoldMT', 'Arial', sans-serif;font-weight:700;font-size:69.624px;fill:white;">R</text>
                    </g>
                    <circle cx="1472.23" cy="551.459" r="49.408" style="fill:white;fill-opacity:0;stroke:white;stroke-width:14.24px;"/>
                </g>
            </g>
        </g>
    </g>
</svg>
