<?xml version="1.0" encoding="UTF-8" standalone="no"?>
<!DOCTYPE svg PUBLIC "-//W3C//DTD SVG 1.1//EN" "http://www.w3.org/Graphics/SVG/1.1/DTD/svg11.dtd">
<svg width="100%" height="100%" viewBox="0 0 1600 900" version="1.1" xmlns="http://www.w3.org/2000/svg" xmlns:xlink="http://www.w3.org/1999/xlink" xml:space="preserve" xmlns:serif="http://www.serif.com/" style="fill-rule:evenodd;clip-rule:evenodd;stroke-linecap:round;stroke-linejoin:round;stroke-miterlimit:1.5;">
    <g id="Layer-1" serif:id="Layer 1">
        <g transform="matrix(1,0,0,1,250.998,779.43)">
            <path d="M0,-133.47L35.771,-133.47L6.23,0L-45.2,0L-63.353,-83.643L-64.776,-83.643L-84.173,0L-135.069,0L-163.899,-133.47L-127.774,-133.47L-108.555,-30.61L-107.308,-30.61L-82.216,-133.47L-45.2,-133.47L-21.354,-30.61L-20.109,-30.61L0,-133.47Z" style="fill:rgb(140,198,63);fill-rule:nonzero;"/>
        </g>
        <g transform="matrix(-1,0,0,1,627.951,525.39)">
            <rect x="296.18" y="120.57" width="35.591" height="133.47" style="fill:rgb(140,198,63);"/>
        </g>
        <g transform="matrix(1,0,0,1,389.244,645.96)">
            <path d="M0,133.47L-35.591,133.47L-35.591,0L24.558,0L62.819,102.504L64.243,102.504L62.108,0L97.699,0L97.699,133.47L37.016,133.47L-0.712,30.966L-2.135,30.966L0,133.47Z" style="fill:rgb(140,198,63);fill-rule:nonzero;"/>
        </g>
        <g transform="matrix(1,0,0,1,599.747,642.893)">
            <path d="M0,133.47L-35.591,133.47L-35.591,30.966L-69.759,30.966L-69.759,0L35.947,0L35.947,30.966L0,30.966L0,133.47Z" style="fill:white;fill-rule:nonzero;"/>
        </g>
        <g transform="matrix(1,0,0,1,728.4,694.679)">
            <path d="M0,29.898L0,-0.177C0,-19.932 -6.584,-21.888 -25.093,-21.888C-43.602,-21.888 -49.651,-19.932 -50.186,-0.177L-50.186,29.898C-49.651,49.827 -43.602,51.786 -25.093,51.786C-6.584,51.786 0,49.827 0,29.898M-86.845,33.812L-86.845,-3.914C-86.845,-45.022 -61.22,-52.853 -25.093,-52.853C11.034,-52.853 36.659,-45.022 36.659,-3.914L36.659,33.812C36.659,74.92 11.034,82.751 -25.093,82.751C-61.22,82.751 -86.845,74.92 -86.845,33.812" style="fill:white;fill-rule:nonzero;"/>
        </g>
        <g transform="matrix(1,0,0,1,862.922,734.899)">
            <path d="M0,-50.542C-0.712,-64.066 -12.28,-63.887 -22.958,-63.887C-48.583,-63.887 -49.295,-56.059 -49.651,-34.524L-49.651,-12.816C-49.651,10.854 -41.467,13.345 -22.958,13.345C-4.805,13.345 0,9.251 0,-9.255L-24.561,-9.255L-24.561,-33.992L36.124,-33.992L36.124,-10.678C36.124,34.344 24.734,42.531 -22.958,42.531C-64.957,42.531 -86.31,35.412 -86.31,-7.831L-86.31,-42.355C-86.31,-86.489 -62.108,-93.073 -22.958,-93.073C11.566,-93.073 36.124,-92.897 36.124,-50.542L0,-50.542Z" style="fill:white;fill-rule:nonzero;"/>
        </g>
        <g transform="matrix(1,0,0,1,1091.36,642.893)">
            <path d="M0,133.47L-35.591,133.47L-35.591,30.966L-69.759,30.966L-69.759,0L35.947,0L35.947,30.966L0,30.966L0,133.47Z" style="fill:white;fill-rule:nonzero;"/>
        </g>
        <g transform="matrix(1,0,0,1,1256.32,642.893)">
            <path d="M0,133.47L-35.591,133.47L-35.591,81.149L-82.04,81.149L-82.04,133.47L-117.631,133.47L-117.631,0L-82.04,0L-82.04,50.183L-35.591,50.183L-35.591,0L0,0L0,133.47Z" style="fill:white;fill-rule:nonzero;"/>
        </g>
        <g transform="matrix(1,0,0,1,1314.49,722.798)">
            <path d="M0,-26.34L56.947,-26.34L56.947,-1.603L0,-1.603L0,24.378L61.931,24.378L61.931,53.565L-35.591,53.565L-35.591,-79.905L60.684,-79.905L60.684,-50.718L0,-50.718L0,-26.34Z" style="fill:white;fill-rule:nonzero;"/>
        </g>
        <g transform="matrix(1,0,0,1,949.526,722.798)">
            <path d="M0,-26.34L56.947,-26.34L56.947,-1.603L0,-1.603L0,24.378L61.931,24.378L61.931,53.565L-35.591,53.565L-35.591,-79.905L60.684,-79.905L60.684,-50.718L0,-50.718L0,-26.34Z" style="fill:white;fill-rule:nonzero;"/>
        </g>
        <g transform="matrix(1,0,0,1,1461.47,709.273)">
            <path d="M0,0.709C15.306,0.709 14.771,-4.984 14.771,-20.111C14.771,-32.033 11.745,-35.415 0,-35.415L-27.581,-35.415L-27.581,0.709L0,0.709ZM-63.175,-66.38L5.517,-66.38C36.306,-65.845 51.43,-59.261 51.43,-25.984C51.43,-3.737 51.43,9.252 26.16,15.124L26.16,16.548C40.755,17.083 50.186,25.09 50.186,40.217L50.186,67.089L14.595,67.089L14.595,48.404C14.95,38.438 10.678,31.675 0,31.675L-27.581,31.675L-27.581,67.089L-63.175,67.089L-63.175,-66.38Z" style="fill:white;fill-rule:nonzero;"/>
        </g>
        <g transform="matrix(1,0,0,1,839.02,328.673)">
            <path d="M0,-208.103C0,-208.103 -61.636,-90.059 -78.035,-45.084C-94.434,-0.11 -125.476,0 -172.456,-23.192C-222.565,-51.312 -230.123,-93.183 -216.963,-114.209C-210.265,-100.023 -139.518,-47.55 -118.76,-58.418C-92.161,-103.504 -62.392,-200.198 0,-208.103" style="fill:rgb(140,198,63);fill-rule:nonzero;"/>
        </g>
        <g transform="matrix(0.218169,-0.975911,-0.975911,-0.218169,710.158,191.2)">
            <path d="M-29.541,-23.666C-46.259,-23.666 -59.811,-10.114 -59.811,6.604C-59.81,23.322 -46.259,36.874 -29.541,36.874C-12.823,36.873 0.729,23.322 0.729,6.604C0.729,-10.114 -12.823,-23.666 -29.541,-23.666" style="fill:rgb(140,198,63);fill-rule:nonzero;"/>
        </g>
        <g transform="matrix(1,0,0,1,1027.04,154.127)">
            <path d="M0,183.163C0,183.163 -131.336,161.155 -179.178,159.506C-227.021,157.857 -236.748,128.378 -229.262,76.522C-218.06,20.165 -180.594,0 -156.525,5.994C-167.936,16.759 -195.893,100.287 -179.126,116.654C-128.015,127.967 -26.856,126.295 0,183.163" style="fill:white;fill-rule:nonzero;"/>
        </g>
        <g transform="matrix(0.995468,-0.0950936,-0.0950936,-0.995468,895.636,262.628)">
            <path d="M-2.879,-0.137C-19.596,-0.137 -33.149,13.415 -33.148,30.132C-33.148,46.85 -19.596,60.403 -2.878,60.403C13.839,60.403 27.391,46.85 27.391,30.133C27.391,13.416 13.839,-0.137 -2.879,-0.137" style="fill:white;fill-rule:nonzero;"/>
        </g>
        <g transform="matrix(1,0,0,1,879.276,325.38)">
            <path d="M0,257.846C0,257.846 -19.789,126.158 -33.052,80.16C-46.315,34.163 -21.303,15.777 30.318,6.82C87.372,0 118.158,29.369 119.921,54.111C106.148,46.599 18.069,45.912 7.706,66.927C12.794,119.027 45.741,214.684 0,257.846" style="fill:white;fill-rule:nonzero;"/>
        </g>
        <g transform="matrix(0.398995,0.916953,0.916953,-0.398995,913.86,399.858)">
            <path d="M27.756,-18.193C11.039,-18.193 -2.514,-4.64 -2.514,12.077C-2.514,28.795 11.038,42.347 27.756,42.347C44.474,42.348 58.026,28.795 58.026,12.078C58.027,-4.64 44.474,-18.193 27.756,-18.193" style="fill:white;fill-rule:nonzero;"/>
        </g>
        <g transform="matrix(1,0,0,1,599.65,456.466)">
            <path d="M0,62.516C0,62.516 119.067,2.879 158.687,-23.989C198.307,-50.857 223.54,-32.777 248.059,13.525C272.229,65.654 253.85,104.028 230.873,113.373C233.746,97.951 207.095,13.997 183.903,10.659C135.947,31.647 55.215,92.624 0,62.516" style="fill:white;fill-rule:nonzero;"/>
        </g>
        <g transform="matrix(-0.748096,0.66359,0.66359,0.748096,802.01,526.084)">
            <path d="M20.087,-52.914C3.37,-52.915 -10.182,-39.362 -10.183,-22.644C-10.183,-5.927 3.37,7.626 20.087,7.626C36.805,7.625 50.357,-5.927 50.358,-22.644C50.357,-39.362 36.805,-52.914 20.087,-52.914" style="fill:white;fill-rule:nonzero;"/>
        </g>
        <g transform="matrix(1,0,0,1,574.049,493.007)">
            <path d="M0,-259.792C0,-259.792 93.608,-165.077 131.435,-135.738C169.261,-106.398 159.894,-76.803 123.474,-39.139C81.405,0 39.224,-5.578 23.216,-24.526C38.77,-26.576 110.327,-77.939 106.31,-101.023C71.49,-140.111 -11.509,-197.963 0,-259.792" style="fill:white;fill-rule:nonzero;"/>
        </g>
        <g transform="matrix(-0.862806,-0.505536,-0.505536,0.862806,597.736,412.914)">
            <path d="M-15.302,-56.388C-32.02,-56.388 -45.573,-42.835 -45.572,-26.117C-45.572,-9.4 -32.02,4.153 -15.302,4.152C1.415,4.152 14.968,-9.4 14.968,-26.118C14.968,-42.836 1.415,-56.388 -15.302,-56.388" style="fill:white;fill-rule:nonzero;"/>
        </g>
        <g transform="matrix(0.355244,0,0,0.347092,1022.06,468.635)">
            <g transform="matrix(1.19939,0,0,1.22046,-214.313,-98.251)">
                <g transform="matrix(69.624,0,0,69.624,1428.95,557.269)">
                </g>
                <text x="1378.67px" y="557.269px" style="font-family:'Arial-BoldMT', 'Arial', sans-serif;font-weight:700;font-size:69.624px;fill:white;">R</text>
            </g>
            <circle cx="1472.23" cy="551.459" r="49.408" style="fill:white;fill-opacity:0;stroke:white;stroke-width:14.24px;"/>
        </g>
    </g>
</svg>
